REM DIRINDEX 1\2\6,1\2\7,1\2\8,1\2\9,1\3\10,1\3\11,1\4\12,1\4\13,1\4\14,1\5\15,1\5\16,1\5\17
REM DIRNAME folder01,folder02,folder03,folder04,folder05,folder06,folder07,folder08,folder09,folder10,folder11,folder12,folder13,folder14,folder15,folder16,folder17
TITLE ""
FILE "1900_3_003 sec01_0032_0047.mp3" MP3
  TRACK 01 AUDIO
    TITLE "0:"
    INDEX 01 00:00:00
  TRACK 02 AUDIO
    TITLE "17:cjc020_6030"
    INDEX 01 00:00:17
  TRACK 03 AUDIO
    TITLE "0:"
    INDEX 01 00:01:19
  TRACK 04 AUDIO
    TITLE "16:cjc020_6031"
    INDEX 01 00:01:26
  TRACK 05 AUDIO
    TITLE "0:"
    INDEX 01 00:02:36
  TRACK 06 AUDIO
    TITLE "17:cjc020_6032"
    INDEX 01 00:03:17
  TRACK 07 AUDIO
    TITLE "0:"
    INDEX 01 00:04:19
  TRACK 08 AUDIO
    TITLE "16:cjc020_6033"
    INDEX 01 00:04:27
  TRACK 09 AUDIO
    TITLE "0:"
    INDEX 01 00:05:34
  TRACK 10 AUDIO
    TITLE "17:cjc020_6034"
    INDEX 01 00:06:18
  TRACK 11 AUDIO
    TITLE "0:"
    INDEX 01 00:07:19
  TRACK 12 AUDIO
    TITLE "16:cjc020_6035"
    INDEX 01 00:07:27
  TRACK 13 AUDIO
    TITLE "0:"
    INDEX 01 00:08:34
  TRACK 14 AUDIO
    TITLE "17:cjc020_6036"
    INDEX 01 00:09:16
  TRACK 15 AUDIO
    TITLE "0:"
    INDEX 01 00:11:52
  TRACK 16 AUDIO
    TITLE "16:cjc020_6037"
    INDEX 01 00:11:58
  TRACK 17 AUDIO
    TITLE "0:"
    INDEX 01 00:12:52
  TRACK 18 AUDIO
    TITLE "17:cjc020_6038"
    INDEX 01 00:13:39
  TRACK 19 AUDIO
    TITLE "0:"
    INDEX 01 00:14:64
  TRACK 20 AUDIO
    TITLE "16:cjc020_6039"
    INDEX 01 00:14:70
  TRACK 21 AUDIO
    TITLE "0:"
    INDEX 01 00:16:10
  TRACK 22 AUDIO
    TITLE "17:cjc020_6040"
    INDEX 01 00:16:63
  TRACK 23 AUDIO
    TITLE "0:"
    INDEX 01 00:18:07
  TRACK 24 AUDIO
    TITLE "16:cjc020_6041"
    INDEX 01 00:18:13
  TRACK 25 AUDIO
    TITLE "0:"
    INDEX 01 00:19:15
  TRACK 26 AUDIO
    TITLE "17:cjc020_6042"
    INDEX 01 00:19:71
  TRACK 27 AUDIO
    TITLE "0:"
    INDEX 01 00:22:19
  TRACK 28 AUDIO
    TITLE "16:cjc020_6043"
    INDEX 01 00:23:03
  TRACK 29 AUDIO
    TITLE "0:"
    INDEX 01 00:24:04
  TRACK 30 AUDIO
    TITLE "17:cjc020_6044"
    INDEX 01 00:24:67
  TRACK 31 AUDIO
    TITLE "0:"
    INDEX 01 00:26:07
  TRACK 32 AUDIO
    TITLE "16:cjc020_6045"
    INDEX 01 00:26:15
  TRACK 33 AUDIO
    TITLE "0:"
    INDEX 01 00:27:20
  TRACK 34 AUDIO
    TITLE "17:cjc020_6046"
    INDEX 01 00:28:02
  TRACK 35 AUDIO
    TITLE "0:"
    INDEX 01 00:29:34
  TRACK 36 AUDIO
    TITLE "16:cjc020_6047"
    INDEX 01 00:29:40
  TRACK 37 AUDIO
    TITLE "0:"
    INDEX 01 00:30:48
  TRACK 38 AUDIO
    TITLE "17:cjc020_6048"
    INDEX 01 00:31:29
  TRACK 39 AUDIO
    TITLE "0:"
    INDEX 01 00:32:19
  TRACK 40 AUDIO
    TITLE "16:cjc020_6049"
    INDEX 01 00:32:27
  TRACK 41 AUDIO
    TITLE "0:"
    INDEX 01 00:33:34
  TRACK 42 AUDIO
    TITLE "17:cjc020_6050"
    INDEX 01 00:34:16
  TRACK 43 AUDIO
    TITLE "0:"
    INDEX 01 00:36:33
  TRACK 44 AUDIO
    TITLE "16:cjc020_6051"
    INDEX 01 00:36:35
  TRACK 45 AUDIO
    TITLE "0:"
    INDEX 01 00:37:40
  TRACK 46 AUDIO
    TITLE "17:cjc020_6052"
    INDEX 01 00:38:24
  TRACK 47 AUDIO
    TITLE "0:"
    INDEX 01 00:39:17
  TRACK 48 AUDIO
    TITLE "16:cjc020_6053"
    INDEX 01 00:39:23
  TRACK 49 AUDIO
    TITLE "0:"
    INDEX 01 00:40:44
  TRACK 50 AUDIO
    TITLE "17:cjc020_6054"
    INDEX 01 00:41:28
  TRACK 51 AUDIO
    TITLE "0:"
    INDEX 01 00:42:27
  TRACK 52 AUDIO
    TITLE "16:cjc020_6055"
    INDEX 01 00:42:29
  TRACK 53 AUDIO
    TITLE "0:"
    INDEX 01 00:43:39
  TRACK 54 AUDIO
    TITLE "17:cjc020_6056"
    INDEX 01 00:44:20
  TRACK 55 AUDIO
    TITLE "0:"
    INDEX 01 00:45:10
  TRACK 56 AUDIO
    TITLE "16:cjc020_6057"
    INDEX 01 00:45:18
  TRACK 57 AUDIO
    TITLE "0:"
    INDEX 01 00:46:13
  TRACK 58 AUDIO
    TITLE "17:cjc020_6058"
    INDEX 01 00:46:74
  TRACK 59 AUDIO
    TITLE "0:"
    INDEX 01 00:48:28
  TRACK 60 AUDIO
    TITLE "16:cjc020_6059"
    INDEX 01 00:48:32
  TRACK 61 AUDIO
    TITLE "0:"
    INDEX 01 00:49:65
  TRACK 62 AUDIO
    TITLE "17:cjc020_6060"
    INDEX 01 00:50:42
  TRACK 63 AUDIO
    TITLE "0:"
    INDEX 01 00:51:52
  TRACK 64 AUDIO
    TITLE "16:cjc020_6061"
    INDEX 01 00:51:58
  TRACK 65 AUDIO
    TITLE "0:"
    INDEX 01 00:53:04
